<svg xmlns="http://www.w3.org/2000/svg" xmlns:xlink="http://www.w3.org/1999/xlink" width="425" zoomAndPan="magnify" viewBox="0 0 318.75 141.750002" height="189" preserveAspectRatio="xMidYMid meet" version="1.0"><defs><g/><clipPath id="3ba13c9a2f"><path d="M 0.78125 22 L 57 22 L 57 132 L 0.78125 132 Z M 0.78125 22 " clip-rule="nonzero"/></clipPath><clipPath id="d3b27f05af"><path d="M 56 22 L 109.902344 22 L 109.902344 73 L 56 73 Z M 56 22 " clip-rule="nonzero"/></clipPath><clipPath id="2627728e4a"><path d="M 24 0.566406 L 87 0.566406 L 87 22 L 24 22 Z M 24 0.566406 " clip-rule="nonzero"/></clipPath></defs><path fill="#2f1514" d="M 56.976562 52.902344 L 65.617188 52.902344 L 65.617188 44.261719 L 56.976562 44.261719 L 56.976562 52.902344 " fill-opacity="1" fill-rule="nonzero"/><path fill="#2f1514" d="M 45.066406 52.902344 L 53.710938 52.902344 L 53.710938 44.261719 L 45.066406 44.261719 L 45.066406 52.902344 " fill-opacity="1" fill-rule="nonzero"/><path fill="#2f1514" d="M 56.976562 65.195312 L 65.617188 65.195312 L 65.617188 56.550781 L 56.976562 56.550781 L 56.976562 65.195312 " fill-opacity="1" fill-rule="nonzero"/><path fill="#2f1514" d="M 45.066406 65.195312 L 53.710938 65.195312 L 53.710938 56.550781 L 45.066406 56.550781 L 45.066406 65.195312 " fill-opacity="1" fill-rule="nonzero"/><g clip-path="url(#3ba13c9a2f)"><path fill="#2bb881" d="M 6.5625 37.8125 L 33.929688 22.011719 L 33.929688 25.128906 L 54.542969 25.128906 L 13.621094 48.753906 L 13.621094 96.929688 L 52.960938 119.640625 C 56.074219 121.4375 57.136719 125.414062 55.34375 128.527344 C 53.546875 131.636719 49.570312 132.703125 46.457031 130.90625 L 6.5625 107.871094 C 2.894531 105.753906 0.617188 101.808594 0.617188 97.570312 L 0.617188 48.113281 C 0.617188 43.875 2.894531 39.929688 6.5625 37.8125 " fill-opacity="1" fill-rule="nonzero"/></g><g clip-path="url(#d3b27f05af)"><path fill="#2bb881" d="M 76.757812 25.128906 L 76.757812 22.011719 L 104.121094 37.8125 C 107.789062 39.929688 110.070312 43.875 110.070312 48.113281 L 110.070312 65.519531 C 110.070312 69.113281 107.15625 72.023438 103.566406 72.023438 C 99.976562 72.023438 97.0625 69.113281 97.0625 65.519531 L 97.0625 48.753906 L 56.144531 25.128906 L 76.757812 25.128906 " fill-opacity="1" fill-rule="nonzero"/></g><g clip-path="url(#2627728e4a)"><path fill="#2f1514" d="M 55.34375 0.570312 L 86.105469 10.878906 L 55.34375 21.1875 L 24.578125 10.878906 L 55.34375 0.570312 " fill-opacity="1" fill-rule="nonzero"/></g><path fill="#2f1514" d="M 36.53125 22.527344 L 74.15625 22.527344 L 74.15625 14.816406 L 36.53125 14.816406 L 36.53125 22.527344 " fill-opacity="1" fill-rule="nonzero"/><path fill="#2f1514" d="M 30.058594 20.515625 C 30.21875 20.046875 30.183594 19.511719 29.894531 19.105469 C 29.804688 18.984375 29.753906 18.835938 29.753906 18.671875 C 29.753906 18.445312 29.855469 18.242188 30.015625 18.105469 L 30.015625 12.320312 L 31 12.320312 L 31 18.105469 C 31.160156 18.242188 31.261719 18.445312 31.261719 18.671875 C 31.261719 18.835938 31.210938 18.984375 31.121094 19.105469 C 30.832031 19.511719 30.796875 20.046875 30.957031 20.515625 L 31.640625 22.527344 L 29.375 22.527344 L 30.058594 20.515625 " fill-opacity="1" fill-rule="nonzero"/><g fill="#2f1514" fill-opacity="1"><g transform="translate(64.01372, 102.307758)"><g><path d="M 2.691406 0 L 7.757812 0 L 7.757812 -13.527344 L 13.207031 -5.546875 L 16.734375 -5.546875 L 22.183594 -13.496094 L 22.183594 0 L 27.25 0 L 27.25 -22.441406 L 22.953125 -22.441406 L 15.003906 -10.804688 L 7.019531 -22.441406 L 2.691406 -22.441406 Z M 2.691406 0 "/></g></g></g><g fill="#2f1514" fill-opacity="1"><g transform="translate(93.955138, 102.307758)"><g><path d="M 8.558594 0 L 13.65625 0 L 13.65625 -7.917969 L 21.894531 -22.441406 L 16.09375 -22.441406 L 13.335938 -17.246094 L 11.125 -13.175781 L 8.878906 -17.246094 L 6.089844 -22.441406 L 0.289062 -22.441406 L 8.558594 -7.855469 Z M 8.558594 0 "/></g></g></g><g fill="#2f1514" fill-opacity="1"><g transform="translate(116.138712, 102.307758)"><g/></g></g><g fill="#2f1514" fill-opacity="1"><g transform="translate(123.672157, 102.307758)"><g><path d="M 12.984375 0.449219 C 18.882812 0.449219 23.464844 -3.140625 24.585938 -8.589844 L 19.332031 -8.589844 C 18.402344 -6.027344 16.027344 -4.390625 13.078125 -4.390625 C 9.265625 -4.390625 6.570312 -7.179688 6.570312 -11.21875 C 6.570312 -15.257812 9.296875 -18.046875 13.113281 -18.046875 C 15.964844 -18.046875 18.304688 -16.507812 19.171875 -14.042969 L 24.425781 -14.042969 C 23.144531 -19.425781 18.65625 -22.890625 12.949219 -22.890625 C 6.15625 -22.890625 1.378906 -18.082031 1.378906 -11.21875 C 1.378906 -4.359375 6.15625 0.449219 12.984375 0.449219 Z M 12.984375 0.449219 "/></g></g></g><g fill="#2f1514" fill-opacity="1"><g transform="translate(149.542314, 102.307758)"><g><path d="M 13.335938 0.449219 C 20.355469 0.449219 25.324219 -4.359375 25.324219 -11.21875 C 25.324219 -18.082031 20.355469 -22.890625 13.335938 -22.890625 C 6.316406 -22.890625 1.378906 -18.082031 1.378906 -11.21875 C 1.378906 -4.359375 6.316406 0.449219 13.335938 0.449219 Z M 6.570312 -11.21875 C 6.570312 -15.257812 9.359375 -18.046875 13.335938 -18.046875 C 17.34375 -18.046875 20.101562 -15.257812 20.101562 -11.21875 C 20.101562 -7.179688 17.34375 -4.390625 13.335938 -4.390625 C 9.359375 -4.390625 6.570312 -7.179688 6.570312 -11.21875 Z M 6.570312 -11.21875 "/></g></g></g><g fill="#2f1514" fill-opacity="1"><g transform="translate(176.245958, 102.307758)"><g><path d="M 11.859375 0.449219 C 17.695312 0.449219 21.253906 -3.207031 21.253906 -9.234375 L 21.253906 -22.441406 L 16.15625 -22.441406 L 16.15625 -9.585938 C 16.15625 -6.15625 14.714844 -4.390625 11.859375 -4.390625 C 9.007812 -4.390625 7.566406 -6.15625 7.566406 -9.585938 L 7.566406 -22.441406 L 2.46875 -22.441406 L 2.46875 -9.234375 C 2.46875 -3.207031 6.027344 0.449219 11.859375 0.449219 Z M 11.859375 0.449219 "/></g></g></g><g fill="#2f1514" fill-opacity="1"><g transform="translate(199.968275, 102.307758)"><g><path d="M 2.691406 0 L 7.789062 0 L 7.789062 -6.988281 L 11.15625 -6.988281 L 15.164062 0 L 21.0625 0 L 16.414062 -7.789062 C 19.105469 -8.976562 20.675781 -11.414062 20.675781 -14.714844 C 20.675781 -19.492188 17.40625 -22.441406 12.277344 -22.441406 L 2.691406 -22.441406 Z M 7.726562 -11.285156 L 7.726562 -18.082031 L 11.605469 -18.082031 C 14.105469 -18.082031 15.515625 -16.863281 15.515625 -14.683594 C 15.515625 -12.503906 14.105469 -11.285156 11.605469 -11.285156 Z M 7.726562 -11.285156 "/></g></g></g><g fill="#2f1514" fill-opacity="1"><g transform="translate(222.536538, 102.307758)"><g><path d="M 10.515625 0.449219 C 15.835938 0.449219 19.105469 -2.082031 19.105469 -6.316406 C 19.105469 -9.875 16.765625 -11.988281 11.1875 -13.304688 C 7.757812 -14.105469 6.570312 -14.96875 6.570312 -16.347656 C 6.570312 -17.824219 7.886719 -18.722656 10.035156 -18.722656 C 12.375 -18.722656 13.785156 -17.503906 13.785156 -15.484375 L 18.6875 -15.484375 C 18.6875 -20.003906 15.292969 -22.890625 9.96875 -22.890625 C 4.808594 -22.890625 1.601562 -20.355469 1.601562 -16.253906 C 1.601562 -12.597656 4.070312 -10.417969 9.328125 -9.296875 C 12.503906 -8.625 13.945312 -7.695312 13.945312 -6.121094 C 13.945312 -4.617188 12.597656 -3.75 10.484375 -3.75 C 8.015625 -3.75 6.410156 -5 6.410156 -7.148438 L 1.410156 -7.148438 C 1.410156 -2.5 4.871094 0.449219 10.515625 0.449219 Z M 10.515625 0.449219 "/></g></g></g><g fill="#2f1514" fill-opacity="1"><g transform="translate(243.08519, 102.307758)"><g><path d="M 2.691406 0 L 17.792969 0 L 17.792969 -4.328125 L 7.757812 -4.328125 L 7.757812 -9.234375 L 16.574219 -9.234375 L 16.574219 -13.496094 L 7.757812 -13.496094 L 7.757812 -18.144531 L 17.4375 -18.144531 L 17.4375 -22.441406 L 2.691406 -22.441406 Z M 2.691406 0 "/></g></g></g><g fill="#2f1514" fill-opacity="1"><g transform="translate(68.184876, 133.223337)"><g><path d="M 7.0625 -1.953125 L 2.84375 -1.953125 L 2.03125 0 L -0.109375 0 L 3.921875 -9.078125 L 6 -9.078125 L 10.0625 0 L 7.859375 0 Z M 6.390625 -3.546875 L 4.953125 -7.015625 L 3.515625 -3.546875 Z M 6.390625 -3.546875 "/></g></g></g><g fill="#2f1514" fill-opacity="1"><g transform="translate(86.68698, 133.223337)"><g><path d="M 5.421875 0.15625 C 4.492188 0.15625 3.65625 -0.0390625 2.90625 -0.4375 C 2.164062 -0.84375 1.578125 -1.398438 1.140625 -2.109375 C 0.710938 -2.828125 0.5 -3.640625 0.5 -4.546875 C 0.5 -5.441406 0.710938 -6.242188 1.140625 -6.953125 C 1.578125 -7.671875 2.164062 -8.226562 2.90625 -8.625 C 3.65625 -9.03125 4.5 -9.234375 5.4375 -9.234375 C 6.21875 -9.234375 6.925781 -9.09375 7.5625 -8.8125 C 8.195312 -8.539062 8.734375 -8.144531 9.171875 -7.625 L 7.8125 -6.375 C 7.207031 -7.082031 6.445312 -7.4375 5.53125 -7.4375 C 4.96875 -7.4375 4.46875 -7.3125 4.03125 -7.0625 C 3.59375 -6.820312 3.25 -6.476562 3 -6.03125 C 2.75 -5.59375 2.625 -5.097656 2.625 -4.546875 C 2.625 -3.984375 2.75 -3.476562 3 -3.03125 C 3.25 -2.59375 3.59375 -2.25 4.03125 -2 C 4.46875 -1.757812 4.96875 -1.640625 5.53125 -1.640625 C 6.445312 -1.640625 7.207031 -1.992188 7.8125 -2.703125 L 9.171875 -1.46875 C 8.734375 -0.9375 8.191406 -0.53125 7.546875 -0.25 C 6.910156 0.0195312 6.203125 0.15625 5.421875 0.15625 Z M 5.421875 0.15625 "/></g></g></g><g fill="#2f1514" fill-opacity="1"><g transform="translate(104.760973, 133.223337)"><g><path d="M 7.0625 -1.953125 L 2.84375 -1.953125 L 2.03125 0 L -0.109375 0 L 3.921875 -9.078125 L 6 -9.078125 L 10.0625 0 L 7.859375 0 Z M 6.390625 -3.546875 L 4.953125 -7.015625 L 3.515625 -3.546875 Z M 6.390625 -3.546875 "/></g></g></g><g fill="#2f1514" fill-opacity="1"><g transform="translate(123.263077, 133.223337)"><g><path d="M 1.078125 -9.078125 L 5.203125 -9.078125 C 6.179688 -9.078125 7.050781 -8.890625 7.8125 -8.515625 C 8.570312 -8.140625 9.160156 -7.609375 9.578125 -6.921875 C 9.992188 -6.242188 10.203125 -5.453125 10.203125 -4.546875 C 10.203125 -3.628906 9.992188 -2.828125 9.578125 -2.140625 C 9.160156 -1.460938 8.570312 -0.9375 7.8125 -0.5625 C 7.050781 -0.1875 6.179688 0 5.203125 0 L 1.078125 0 Z M 5.09375 -1.71875 C 6 -1.71875 6.722656 -1.972656 7.265625 -2.484375 C 7.804688 -2.992188 8.078125 -3.679688 8.078125 -4.546875 C 8.078125 -5.410156 7.804688 -6.09375 7.265625 -6.59375 C 6.722656 -7.101562 6 -7.359375 5.09375 -7.359375 L 3.171875 -7.359375 L 3.171875 -1.71875 Z M 5.09375 -1.71875 "/></g></g></g><g fill="#2f1514" fill-opacity="1"><g transform="translate(142.543564, 133.223337)"><g><path d="M 8.109375 -1.6875 L 8.109375 0 L 1.078125 0 L 1.078125 -9.078125 L 7.9375 -9.078125 L 7.9375 -7.390625 L 3.171875 -7.390625 L 3.171875 -5.421875 L 7.375 -5.421875 L 7.375 -3.78125 L 3.171875 -3.78125 L 3.171875 -1.6875 Z M 8.109375 -1.6875 "/></g></g></g><g fill="#2f1514" fill-opacity="1"><g transform="translate(159.813219, 133.223337)"><g><path d="M 9.34375 0 L 9.328125 -5.453125 L 6.65625 -0.953125 L 5.703125 -0.953125 L 3.046875 -5.328125 L 3.046875 0 L 1.078125 0 L 1.078125 -9.078125 L 2.8125 -9.078125 L 6.21875 -3.4375 L 9.5625 -9.078125 L 11.28125 -9.078125 L 11.3125 0 Z M 9.34375 0 "/></g></g></g><g fill="#2f1514" fill-opacity="1"><g transform="translate(180.767244, 133.223337)"><g><path d="M 5.4375 -3.21875 L 5.4375 0 L 3.328125 0 L 3.328125 -3.25 L -0.1875 -9.078125 L 2.046875 -9.078125 L 4.46875 -5.046875 L 6.90625 -9.078125 L 8.96875 -9.078125 Z M 5.4375 -3.21875 "/></g></g></g></svg>